<svg height="512pt" viewBox="-63 0 512 512" width="512pt" xmlns="http://www.w3.org/2000/svg"><path d="m385.285156 192.644531c0-4.144531-3.355468-7.5-7.5-7.5h-21.226562c-4.144532 0-7.5 3.355469-7.5 7.5 0 4.140625 3.355468 7.5 7.5 7.5h21.226562c4.144532 0 7.5-3.359375 7.5-7.5zm0 0"/><path d="m36.230469 192.644531c0-4.144531-3.359375-7.5-7.5-7.5h-21.230469c-4.144531 0-7.5 3.355469-7.5 7.5 0 4.140625 3.355469 7.5 7.5 7.5h21.230469c4.140625 0 7.5-3.359375 7.5-7.5zm0 0"/><path d="m313.851562 82.042969 15.011719-15.011719c2.929688-2.929688 2.929688-7.679688 0-10.605469-2.929687-2.929687-7.679687-2.929687-10.609375 0l-15.007812 15.007813c-2.929688 2.929687-2.929688 7.679687 0 10.609375 2.925781 2.925781 7.675781 2.929687 10.605468 0zm0 0"/><path d="m71.433594 303.246094-15.011719 15.011718c-2.925781 2.925782-2.925781 7.675782 0 10.605469 2.933594 2.929688 7.679687 2.929688 10.609375 0l15.011719-15.011719c2.929687-2.929687 2.929687-7.679687 0-10.605468-2.929688-2.929688-7.679688-2.929688-10.609375 0zm0 0"/><path d="m200.144531 28.730469v-21.230469c0-4.140625-3.359375-7.5-7.5-7.5-4.144531 0-7.503906 3.359375-7.503906 7.5v21.230469c0 4.140625 3.359375 7.5 7.503906 7.5 4.140625 0 7.5-3.359375 7.5-7.5zm0 0"/><path d="m82.039062 82.042969c2.933594-2.929688 2.933594-7.679688.003907-10.609375l-15.011719-15.007813c-2.929688-2.929687-7.679688-2.929687-10.605469 0-2.929687 2.929688-2.929687 7.675781-.003906 10.605469l15.011719 15.011719c2.929687 2.929687 7.679687 2.929687 10.605468 0zm0 0"/><path d="m328.863281 328.863281c2.929688-2.929687 2.929688-7.679687 0-10.605469l-15.011719-15.011718c-2.929687-2.929688-7.679687-2.929688-10.605468 0-2.929688 2.929687-2.929688 7.675781 0 10.605468l15.007812 15.011719c2.929688 2.929688 7.679688 2.929688 10.609375 0zm0 0"/><path d="m108.523438 317.070312c8.84375 5.992188 14.128906 15.890626 14.128906 26.480469v7.441407h-2.832032c-10.558593 0-19.148437 8.589843-19.148437 19.148437v16.507813c0 4.386718 1.496094 8.417968 3.984375 11.652343-2.488281 3.230469-3.984375 7.265625-3.984375 11.652344v16.503906c0 9.429688 6.851563 17.269531 15.835937 18.847657-.34375 1.429687-.546874 2.917968-.546874 4.457031v16.503906c0 10.5625 8.59375 19.152344 19.152343 19.152344h24.292969c3.425781 15.195312 17.019531 26.582031 33.238281 26.582031 16.214844 0 29.808594-11.386719 33.238281-26.582031h24.289063c10.5625 0 19.152344-8.589844 19.152344-19.152344v-16.503906c0-1.539063-.203125-3.027344-.546875-4.457031 8.984375-1.578126 15.839844-9.417969 15.839844-18.847657v-16.503906c0-4.386719-1.5-8.421875-3.988282-11.652344 2.492188-3.234375 3.988282-7.265625 3.988282-11.652343v-16.507813c0-10.558594-8.59375-19.148437-19.152344-19.148437h-2.828125v-7.4375c0-10.628907 5.144531-20.441407 13.765625-26.242188 36.21875-24.375 60.019531-63.105469 65.300781-106.257812.5-4.109376-2.421875-7.851563-6.535156-8.355469-4.097657-.503907-7.851563 2.421875-8.355469 6.535156-4.75 38.828125-26.175781 73.6875-58.785156 95.636719-12.769532 8.59375-20.390625 23.054687-20.390625 38.683594v7.4375h-47.492188v-89.71875h20.082031c10.5625 0 19.152344-8.589844 19.152344-19.152344v-2.175782c0-10.558593-8.59375-19.152343-19.152344-19.152343h-55.164062c-10.5625 0-19.152344 8.59375-19.152344 19.152343v2.175782c0 10.5625 8.589844 19.152344 19.152344 19.152344h20.082031v89.71875h-47.492187v-7.441407c0-15.570312-7.746094-30.113281-20.714844-38.898437-36.996094-25.054688-59.226562-66.640625-59.476562-111.238282-.382813-68.523437 50.605468-126.53125 118.601562-134.929687 4.109375-.507813 7.03125-4.25 6.523438-8.363281-.507813-4.109375-4.261719-7.035156-8.363282-6.523438-74.957031 9.257813-132.1875 73.804688-131.761718 149.902344.273437 49.542969 24.972656 95.738281 66.0625 123.570312zm52.386718-74.949218v-2.175782c0-2.25 1.898438-4.152343 4.148438-4.152343h55.164062c2.25 0 4.152344 1.902343 4.152344 4.152343v2.175782c0 2.25-1.902344 4.152344-4.152344 4.152344h-55.164062c-2.25 0-4.148438-1.902344-4.148438-4.152344zm14.1875 243.296875h35.089844c-6.617188 15.421875-28.484375 15.394531-35.089844 0zm79.226563-19.152344c0 2.25-1.902344 4.152344-4.152344 4.152344-25.019531 0-90.546875 0-115.058594 0-2.25 0-4.148437-1.902344-4.148437-4.152344v-16.503906c0-2.25 1.898437-4.152344 4.148437-4.152344h115.058594c2.25 0 4.152344 1.902344 4.152344 4.152344zm15.292969-39.808594c0 2.25-1.902344 4.152344-4.152344 4.152344-7.566406 0-139.570313 0-145.644532 0-2.25 0-4.148437-1.902344-4.148437-4.152344v-16.503906c0-2.25 1.898437-4.152344 4.148437-4.152344h145.644532c2.25 0 4.152344 1.902344 4.152344 4.152344zm0-56.316406v16.507813c0 2.25-1.902344 4.152343-4.152344 4.152343h-145.644532c-2.25 0-4.148437-1.902343-4.148437-4.152343v-16.507813c0-2.25 1.898437-4.148437 4.148437-4.148437h145.644532c2.25 0 4.152344 1.898437 4.152344 4.148437zm0 0"/><path d="m211.054688 43.578125c-4.09375-.5-7.851563 2.421875-8.355469 6.535156-.503907 4.113281 2.421875 7.851563 6.535156 8.355469 61.683594 7.542969 110.035156 55.898438 117.578125 117.585938.464844 3.800781 3.699219 6.589843 7.4375 6.589843.304688 0 .609375-.019531.917969-.058593 4.113281-.5 7.039062-4.242188 6.535156-8.355469-8.355469-68.3125-62.636719-122.335938-130.648437-130.652344zm0 0"/></svg>